<?xml version="1.0" encoding="UTF-8"?>
<svg width="1200pt" height="1200pt" version="1.1" viewBox="0 0 1200 1200" xmlns="http://www.w3.org/2000/svg">
 <g>
  <path d="m587.28 335.24c4.2578-11.23 21.168-11.23 25.43 0 18.016 47.508 52.648 130.12 87.285 164.76 34.723 34.727 113.18 69.449 157.88 87.426 10.918 4.3906 10.918 20.766 0 25.152-44.703 17.977-123.16 52.703-157.88 87.422-34.637 34.637-69.27 117.25-87.285 164.76-4.2617 11.227-21.172 11.227-25.43 0-18.016-47.508-52.652-130.12-87.285-164.76-34.637-34.637-117.25-69.266-164.76-87.281-11.23-4.2578-11.23-21.168 0-25.43 47.508-18.02 130.12-52.652 164.76-87.289 34.633-34.633 69.27-117.25 87.285-164.76z" fill="currentColor"/>
  <path d="m836.73 235.05c4.6094-11.094 21.938-11.094 26.547 0 9.5703 23.051 23.152 51.375 36.727 64.953 13.66 13.66 40.859 27.32 62.727 36.906 10.773 4.7227 10.773 21.469 0 26.191-21.867 9.582-49.066 23.242-62.727 36.902-13.574 13.578-27.156 41.902-36.727 64.953-4.6094 11.094-21.938 11.094-26.547 0-9.5703-23.051-23.152-51.375-36.727-64.953-13.578-13.578-41.906-27.152-64.953-36.727-11.094-4.6055-11.094-21.938 0-26.547 23.047-9.5703 51.375-23.148 64.953-36.727 13.574-13.578 27.156-41.902 36.727-64.953z" fill="currentColor"/>
  <path d="m352.81 301.49c5.0273-10.906 22.684-10.906 27.711 0 5.7109 12.387 12.594 24.957 19.477 31.844 6.9766 6.9727 19.25 13.949 31.16 19.703 10.594 5.1172 10.594 22.141 0 27.258-11.914 5.7539-24.184 12.73-31.16 19.707-6.8828 6.8828-13.766 19.453-19.477 31.84-5.0273 10.91-22.684 10.91-27.711 0-5.7109-12.387-12.594-24.957-19.48-31.84-6.8828-6.8867-19.453-13.77-31.84-19.48-10.91-5.0273-10.91-22.68 0-27.711 12.387-5.7109 24.957-12.594 31.84-19.477 6.8867-6.8867 13.77-19.457 19.48-31.844z" fill="currentColor"/>
 </g>
</svg>
