<?xml version="1.0" encoding="UTF-8"?>
<svg width="1200pt" height="1200pt" version="1.1" viewBox="0 0 1200 1200" xmlns="http://www.w3.org/2000/svg">
 <path fill="currentColor" d="m700 62.5h-450c-36.461 0.027344-71.418 14.523-97.199 40.301-25.777 25.781-40.273 60.738-40.301 97.199v542.85c0.039062 36.453 14.539 71.402 40.316 97.184 25.777 25.777 60.727 40.273 97.184 40.316h106.5v119.65c0.027344 36.461 14.523 71.418 40.301 97.199 25.781 25.777 60.738 40.273 97.199 40.301h456c36.461-0.027344 71.418-14.523 97.199-40.301 25.777-25.781 40.273-60.738 40.301-97.199v-550c-0.027344-36.461-14.523-71.418-40.301-97.199-25.781-25.777-60.738-40.273-97.199-40.301h-112.5v-112.5c-0.027344-36.461-14.523-71.418-40.301-97.199-25.781-25.777-60.738-40.273-97.199-40.301zm-512.5 680.35v-542.85c0.027344-16.566 6.6211-32.449 18.336-44.164 11.715-11.715 27.598-18.309 44.164-18.336h450c16.566 0.027344 32.449 6.6211 44.164 18.336 11.715 11.715 18.309 27.598 18.336 44.164v542.85c-0.027344 16.566-6.6211 32.449-18.336 44.164-11.715 11.715-27.598 18.309-44.164 18.336h-450c-16.566-0.027343-32.449-6.6211-44.164-18.336-11.715-11.715-18.309-27.598-18.336-44.164zm762.5-355.35c16.566 0.027344 32.449 6.6211 44.164 18.336 11.715 11.715 18.309 27.598 18.336 44.164v550c-0.027344 16.566-6.6211 32.449-18.336 44.164-11.715 11.715-27.598 18.309-44.164 18.336h-456c-16.57-0.011719-32.461-6.6016-44.18-18.32s-18.309-27.609-18.32-44.18v-119.65h268.5c36.457-0.042968 71.406-14.539 97.184-40.316 25.777-25.781 40.277-60.73 40.316-97.184v-355.35z"/>
</svg>
