<?xml version="1.0" encoding="UTF-8"?>
<svg width="1200pt" height="1200pt" version="1.1" viewBox="0 0 1200 1200" xmlns="http://www.w3.org/2000/svg">
 <g>
  <path d="m1025.6 286.88-225-225c-3.3867-3.6445-8.1523-5.6875-13.125-5.625h-546.38c-19.164 0.097656-37.516 7.7539-51.066 21.309-13.555 13.551-21.211 31.902-21.309 51.066v358.88c0 6.6992 3.5742 12.887 9.375 16.238 5.8008 3.3477 12.949 3.3477 18.75 0 5.8008-3.3516 9.375-9.5391 9.375-16.238v-358.88c0-9.25 3.6758-18.121 10.215-24.66 6.5391-6.5391 15.41-10.215 24.66-10.215h527.62v206.25c0 4.9727 1.9766 9.7422 5.4922 13.258 3.5156 3.5156 8.2852 5.4922 13.258 5.4922h206.25v752.62c0 9.25-3.6758 18.121-10.215 24.66-6.5391 6.5391-15.41 10.215-24.66 10.215h-717.75c-9.25 0-18.121-3.6758-24.66-10.215-6.5391-6.5391-10.215-15.41-10.215-24.66v-96.375c0-6.6992-3.5742-12.887-9.375-16.238-5.8008-3.3477-12.949-3.3477-18.75 0-5.8008 3.3516-9.375 9.5391-9.375 16.238v96.375c0.097656 19.164 7.7539 37.516 21.309 51.066 13.551 13.555 31.902 21.211 51.066 21.309h717.75c19.164-0.097656 37.516-7.7539 51.066-21.309 13.555-13.551 21.211-31.902 21.309-51.066v-771.38c0.0625-4.9727-1.9805-9.7383-5.625-13.125zm-219.38-166.5 160.88 160.88h-160.88z"/>
  <path d="m881.25 858v-253.5c0.10156-16.141-6.2656-31.652-17.684-43.066-11.414-11.418-26.926-17.785-43.066-17.684h-666c-16.141-0.10156-31.652 6.2656-43.066 17.684-11.418 11.414-17.785 26.926-17.684 43.066v253.5c-0.10156 16.141 6.2656 31.652 17.684 43.066 11.414 11.418 26.926 17.785 43.066 17.684h666c16.141 0.10156 31.652-6.2656 43.066-17.684 11.418-11.414 17.785-26.926 17.684-43.066zm-618.75-77.625c12.328 12.867 29.43 20.062 47.25 19.875 9.5352 0.011719 18.973-1.9023 27.75-5.625 9.418-4.7383 18.023-10.941 25.5-18.375l21.375 21.75c-18.691 21.996-46.137 34.621-75 34.5-27.871 1.3242-55.039-9-75-28.5-18.832-19.387-29.363-45.348-29.363-72.375s10.531-52.988 29.363-72.375c20.004-19.508 47.07-30.062 75-29.25 28.754-0.35938 56.199 11.992 75 33.75l-21 22.875c-7.457-7.8867-16.371-14.254-26.25-18.75-9.2617-3.8203-19.238-5.6094-29.25-5.25-16.945 0.64844-33.078 7.4453-45.375 19.125-13.477 12.562-20.859 30.336-20.25 48.75-0.45703 18.715 6.875 36.777 20.25 49.875zm278.62 37.5c-14.488 11.059-32.422 16.637-50.625 15.75-30.129 0.15625-59.203-11.098-81.375-31.5l20.625-25.125c16.613 15.906 38.512 25.117 61.5 25.875 9 0.49609 17.926-1.8672 25.5-6.75 6.0703-4.1133 9.6094-11.047 9.375-18.375 0.26953-7.0391-3.1367-13.715-9-17.625-9.3516-5.5781-19.645-9.3906-30.375-11.25-11.043-2.6523-21.938-5.9062-32.625-9.75-7.2383-2.5469-13.969-6.3555-19.875-11.25-12.012-9.7148-18.465-24.727-17.25-40.125-0.97266-16.473 6.5195-32.305 19.875-42 14.195-10.109 31.332-15.254 48.75-14.625 12.742-0.0625 25.41 1.9648 37.5 6 11.641 3.8125 22.457 9.793 31.875 17.625l-17.625 24.75c-6.8789-5.8789-14.934-10.227-23.625-12.75-9.3867-3.3711-19.273-5.1484-29.25-5.25-8.2695-0.15625-16.43 1.918-23.625 6-2.9375 1.8672-5.3203 4.4883-6.9023 7.5859-1.582 3.0977-2.3047 6.5664-2.0977 10.039-0.38672 7.2695 3.0156 14.223 9 18.375 12.434 6.3086 25.688 10.852 39.375 13.5 16.48 3.1719 32.008 10.102 45.375 20.25 10.281 9.7031 15.887 23.371 15.375 37.5 0.17969 16.395-7.3125 31.93-20.25 42zm150 13.5h-37.5l-78.375-195.38h37.5l60.375 145.88 60-145.88h37.5z"/>
 </g>
</svg>
