<?xml version="1.0" encoding="UTF-8"?>
<svg width="1200pt" height="1200pt" version="1.1" viewBox="0 0 1200 1200" xmlns="http://www.w3.org/2000/svg">
 <g>
  <path fill="currentColor" d="m856.56 248.16c-18.48-29.398-50.281-46.922-84.961-46.922h-335.04c-34.68 0-66.48 17.52-85.32 47.641l-155.64 266.4c-20.398 32.52-20.398 74.398-0.35937 106.2l156.36 267.72c18.48 29.398 50.281 46.922 84.961 46.922h335.04c34.68 0 66.48-17.52 85.32-47.641l155.52-266.4c20.398-32.52 20.398-74.398 0.35938-106.2zm114.96 349.08-155.52 266.4c-9.6016 15.359-26.16 24.48-44.281 24.48h-335.16c-18.121 0-34.68-9.1211-43.922-23.762l-156.36-267.84c-10.68-16.922-10.68-38.762 0.35938-56.398l155.52-266.4c9.6016-15.359 26.16-24.48 44.281-24.48l335.16-0.003907c18.121 0 34.68 9.1211 43.922 23.762l156.48 267.84c10.559 16.922 10.559 38.762-0.48047 56.398z"/>
  <path fill="currentColor" d="m604.08 399.12c-93.48 0-169.56 76.078-169.56 169.56 0 93.48 76.078 169.56 169.56 169.56s169.56-76.078 169.56-169.56c0.003906-93.48-76.078-169.56-169.56-169.56zm0 291.12c-66.961 0-121.56-54.48-121.56-121.56 0-66.961 54.48-121.56 121.56-121.56s121.56 54.48 121.56 121.56c0.003906 67.082-54.477 121.56-121.56 121.56z"/>
 </g>
</svg>
