<?xml version="1.0" encoding="UTF-8"?>
<svg width="1200pt" height="1200pt" version="1.1" viewBox="0 0 1200 1200" xmlns="http://www.w3.org/2000/svg">
 <g>
  <path d="m270 155.21c0-35.879 29.34-65.207 65.195-65.207h521.51c35.867 0 65.195 29.34 65.195 65.207v5.4102c0 35.867-29.328 65.207-65.195 65.207l-521.51 0.003906c-35.855 0-65.195-29.34-65.195-65.207z"/>
  <path d="m885.41 673.41c35.016 7.7656 45.805-9.1562 24.047-37.656l-273.91-358.17c-21.781-28.488-57.422-28.488-79.199 0l-273.91 358.18c-21.781 28.5-10.957 45.422 24.047 37.656l117.18-26.039c35.004-7.7773 63.637 15.191 63.637 51.047v331.37c0 35.855 29.34 65.207 65.195 65.207h86.914c35.844 0 65.184-29.34 65.184-65.207l0.003906-331.36c0-35.855 28.633-58.824 63.648-51.047z"/>
 </g>
</svg>
